<svg width="155" height="175" viewBox="0 0 155 175" fill="none" xmlns="http://www.w3.org/2000/svg">
<path d="M56.8542 128.491C56.634 128.491 56.3954 128.393 56.2486 128.217C56.0283 127.963 55.9549 127.591 56.0834 127.278L82.6749 58.8142C82.7484 58.6382 82.8585 58.5013 83.0053 58.4035L119.562 33.4506C119.819 33.2746 120.149 33.2551 120.424 33.4311C120.7 33.5875 120.865 33.9004 120.846 34.2328L119.268 105.728C119.268 106.1 119.03 106.432 118.699 106.549L57.1478 128.471C57.0377 128.491 56.9459 128.491 56.8542 128.491ZM84.1064 59.7333L58.3223 126.144L117.598 105.044L119.121 35.8364L84.1064 59.7333Z" fill="white"/>
<path d="M55.5879 174.427H55.5696C55.1108 174.407 54.7437 173.996 54.7621 173.508L56.01 127.982L24.3167 95.8719C24.1699 95.7155 24.0781 95.5199 24.0598 95.3048L18.5176 28.0337C18.4992 27.7208 18.6277 27.408 18.8663 27.232C19.1048 27.056 19.4168 27.0168 19.6921 27.1537L83.776 58.3448C84.1981 58.5404 84.3816 59.088 84.1798 59.5182C83.9963 59.968 83.4824 60.1635 83.0787 59.9484L20.316 29.3831L25.6931 94.8159L57.4231 126.965C57.5882 127.141 57.6984 127.376 57.68 127.63L56.4137 173.547C56.4137 174.036 56.0467 174.427 55.5879 174.427Z" fill="white"/>
<path d="M116.46 166.663C116.46 166.663 116.442 166.663 116.424 166.663C115.965 166.643 115.598 166.233 115.616 165.744L117.561 105.65C117.58 105.278 117.8 104.965 118.112 104.848L153.09 91.4133C153.531 91.2373 154.008 91.4915 154.155 91.9413C154.32 92.4106 154.081 92.9191 153.659 93.0755L119.213 106.295L117.286 165.783C117.286 166.291 116.919 166.663 116.46 166.663Z" fill="white"/>
<path d="M129.747 18.2755C129.747 18.2755 129.729 18.2755 129.71 18.2755L80.069 16.3591C79.9773 16.3591 79.8671 16.3395 79.7754 16.2808L49.5502 2.67016C49.1281 2.47461 48.9263 1.96617 49.1098 1.49683C49.2933 1.04706 49.7888 0.831942 50.2109 1.0275L80.2892 14.5599L129.765 16.4568C130.224 16.4764 130.591 16.8871 130.573 17.3759C130.573 17.8844 130.206 18.2755 129.747 18.2755Z" fill="white"/>
<path d="M135.766 72.5617C135.454 72.5617 135.142 72.3662 135.014 72.0337L119.378 34.8586L80.0323 16.3982L19.5086 28.8159C19.1232 28.8746 18.7194 28.6595 18.5726 28.2684L13.6727 15.127C13.5076 14.6773 13.7094 14.1493 14.1315 13.9733C14.5536 13.7973 15.0491 14.0124 15.2143 14.4622L19.8756 26.9386L79.9589 14.5991C80.1241 14.5599 80.2892 14.5795 80.4544 14.6577L120.333 33.3724C120.516 33.4506 120.681 33.6266 120.755 33.8222L136.519 71.3102C136.702 71.7599 136.519 72.2879 136.097 72.4835C136.005 72.5422 135.876 72.5617 135.766 72.5617Z" fill="white"/>
<path d="M55.5879 174.427C55.331 174.427 55.0924 174.309 54.9273 174.075L20.7565 126.77L6.71747 125.46C6.31373 125.42 6.00176 125.088 5.96506 124.677L0.422852 71.4471C0.422852 71.4275 0.422852 71.408 0.422852 71.3884C0.422852 71.3102 0.422859 71.2319 0.459563 71.1342L13.636 14.5991C13.7095 14.3057 13.9113 14.0711 14.1682 13.9733L49.6236 1.04706C49.7337 1.00795 49.8438 0.988393 49.954 1.00795L89.8321 3.92172L130.004 16.5546C130.316 16.6524 130.554 16.9457 130.591 17.2977L136.574 71.3102L154.008 91.6675C154.155 91.8435 154.228 92.0586 154.228 92.2933L153.164 133.321C153.164 133.575 153.054 133.81 152.87 133.966L116.993 166.448C116.864 166.565 116.717 166.624 116.552 166.663L55.6797 174.427C55.6613 174.427 55.6246 174.427 55.5879 174.427ZM22.0778 125.675L55.9733 172.588L116.13 164.923L151.53 132.871L152.558 92.5866L135.161 72.288C135.051 72.1511 134.977 71.9751 134.94 71.7991L128.995 18.08L89.5385 5.66217L50.009 2.76794L15.1409 15.4791L2.18461 71.0559L25.4545 94.5813C25.6564 94.7768 25.7481 95.0506 25.7114 95.344L22.0778 125.675ZM7.5433 123.758L20.4629 124.971L24.0047 95.5786L2.33142 73.6764L7.5433 123.758Z" fill="white"/>
<path d="M56.2119 151.332C56.0651 151.332 55.9366 151.253 55.8448 151.116L24.5186 95.4613C24.4085 95.2657 24.4635 94.992 24.647 94.8551C24.8306 94.7182 25.0691 94.7573 25.2159 94.9528L56.8542 139.481C57.001 139.676 56.9643 139.95 56.7808 140.107C56.5973 140.263 56.3403 140.224 56.1935 140.028L29.235 102.071L56.5789 150.647C56.689 150.862 56.634 151.136 56.4321 151.253C56.3587 151.312 56.2853 151.332 56.2119 151.332Z" fill="white"/>
<path d="M47.2746 162.478C47.1095 162.478 46.9443 162.361 46.8892 162.185L24.5002 95.3831C24.4268 95.168 24.5186 94.9137 24.7204 94.816C24.9223 94.7182 25.1609 94.816 25.2526 95.0311L56.3036 160.953C56.4138 161.168 56.322 161.442 56.1201 161.54C55.9182 161.657 55.6613 161.559 55.5512 161.344L27.5833 101.954L47.6784 161.891C47.7518 162.126 47.6417 162.38 47.4214 162.459C47.3847 162.478 47.3297 162.478 47.2746 162.478Z" fill="white"/>
<path d="M36.0801 146.971C35.8966 146.971 35.7131 146.834 35.6764 146.619L25.5463 100.194L27.1612 133.556C27.1796 133.81 26.996 134.005 26.7575 134.025C26.5189 134.005 26.3354 133.849 26.317 133.595L24.4635 95.2266C24.4452 94.9919 24.6103 94.7964 24.8306 94.7573C25.0141 94.7377 25.2526 94.8746 25.2894 95.0897L36.4839 146.384C36.5389 146.619 36.3921 146.873 36.1719 146.912C36.1535 146.971 36.1168 146.971 36.0801 146.971Z" fill="white"/>
<path d="M56.8542 128.06C56.7257 128.06 56.6156 128.002 56.5238 127.904C56.377 127.728 56.3954 127.454 56.5606 127.298L118.956 67.5946C119.121 67.4382 119.397 67.4382 119.543 67.6337C119.69 67.8097 119.69 68.1031 119.507 68.2595L62.9102 122.428L118.718 79.5626C118.901 79.4062 119.158 79.4648 119.305 79.6604C119.433 79.8559 119.397 80.1297 119.213 80.2862L57.0744 128.002C57.0193 128.021 56.9459 128.06 56.8542 128.06Z" fill="white"/>
<path d="M57.8085 127.552C57.6617 127.552 57.5148 127.454 57.4414 127.298C57.3497 127.083 57.4231 126.828 57.6066 126.711L118.552 90.1226C118.754 90.0053 119.011 90.0835 119.121 90.2986C119.231 90.5137 119.158 90.7875 118.956 90.9048L66.3053 122.526L118.424 97.3582C118.644 97.2604 118.883 97.3582 118.975 97.5733C119.066 97.7884 118.975 98.0622 118.773 98.1599L57.992 127.513C57.9186 127.532 57.8635 127.552 57.8085 127.552Z" fill="white"/>
<path d="M98.8611 87.8737C98.806 87.8737 98.751 87.8542 98.6959 87.8346C98.4757 87.7368 98.384 87.4826 98.4757 87.2479L119.617 34.0177C119.709 33.8026 119.929 33.7048 120.131 33.7635C120.333 33.8417 120.461 34.0764 120.406 34.2915L109.854 77.3919C109.799 77.6266 109.578 77.7831 109.34 77.7048C109.12 77.6462 108.991 77.3919 109.046 77.1573L118.149 39.9822L99.2465 87.5804C99.1731 87.7564 99.0263 87.8737 98.8611 87.8737Z" fill="white"/>
<path d="M70.5812 114.919C70.5078 114.919 70.416 114.899 70.3426 114.841C70.1591 114.704 70.1041 114.43 70.2142 114.215L119.617 33.9395C119.745 33.7439 119.984 33.6853 120.186 33.8026C120.388 33.9199 120.443 34.1937 120.333 34.3893L87.7767 98.5511C87.6666 98.7662 87.4097 98.8444 87.2078 98.7271C87.0059 98.6097 86.9325 98.336 87.0426 98.1208L114.919 43.1893L70.9115 114.704C70.8565 114.841 70.728 114.919 70.5812 114.919Z" fill="white"/>
<path d="M56.8542 128.06C56.7808 128.06 56.7074 128.041 56.634 128.002C56.4321 127.865 56.377 127.591 56.5055 127.396L101.504 50.4444L71.6089 90.8071C71.4621 91.0026 71.2052 91.0417 71.0217 90.8853C70.8381 90.7288 70.8014 90.4551 70.9483 90.2595L105.504 43.6195C105.651 43.424 105.89 43.4044 106.073 43.5217C106.257 43.6586 106.312 43.9128 106.183 44.128L57.2212 127.865C57.1295 127.982 57.001 128.06 56.8542 128.06Z" fill="white"/>
<path d="M98.8611 68.9831C98.8244 68.9831 98.7877 68.9831 98.7326 68.9635C98.5124 68.8853 98.384 68.6506 98.4574 68.416L105.413 43.7368C105.468 43.5413 105.651 43.3848 105.853 43.4239C106.055 43.4435 106.202 43.6195 106.22 43.8346L107.156 55.6657C107.174 55.92 107.009 56.1351 106.771 56.1546C106.514 56.1937 106.33 55.9982 106.312 55.744L105.578 46.2204L99.2465 68.6506C99.2098 68.8657 99.0263 68.9831 98.8611 68.9831Z" fill="white"/>
<path d="M111.983 47.648C111.909 47.648 111.854 47.6284 111.799 47.6088L105.633 44.2648C105.486 44.1866 105.394 44.0106 105.413 43.8346C105.431 43.6586 105.541 43.5022 105.706 43.4435L116.038 40.0213C116.258 39.9431 116.497 40.08 116.552 40.3146C116.625 40.5493 116.497 40.8035 116.277 40.8622L106.936 43.9715L112.184 46.8266C112.386 46.9439 112.478 47.1982 112.368 47.4328C112.276 47.5697 112.129 47.648 111.983 47.648Z" fill="white"/>
<path d="M78.3073 72.7964C78.1972 72.7964 78.087 72.7573 78.0136 72.6595C77.8485 72.4835 77.8485 72.2097 78.0136 72.0337L105.523 43.5413C105.688 43.3653 105.945 43.3653 106.11 43.5413C106.275 43.7173 106.275 43.9911 106.11 44.1671L78.6009 72.6595C78.5275 72.7573 78.4174 72.7964 78.3073 72.7964Z" fill="white"/>
<path d="M152.338 133.732C152.191 133.732 152.026 133.634 151.971 133.477L136.06 98.9617C135.95 98.7466 136.042 98.4728 136.243 98.3751C136.445 98.2773 136.702 98.3555 136.794 98.5706L151.163 129.723L144.043 95.7742C143.988 95.5395 144.135 95.3048 144.355 95.2462C144.575 95.1875 144.795 95.3439 144.85 95.5786L152.742 133.184C152.797 133.399 152.668 133.634 152.466 133.692C152.43 133.732 152.375 133.732 152.338 133.732Z" fill="white"/>
<path d="M152.338 133.732C152.246 133.732 152.154 133.692 152.081 133.634L119.745 105.435C119.562 105.278 119.543 105.004 119.69 104.809C119.837 104.613 120.094 104.594 120.277 104.75L149.475 130.231L128.205 102.091C128.059 101.895 128.095 101.621 128.26 101.465C128.444 101.308 128.701 101.348 128.848 101.524L152.65 133.008C152.778 133.184 152.778 133.438 152.613 133.595C152.54 133.692 152.448 133.732 152.338 133.732Z" fill="white"/>
<path d="M152.338 133.732C152.301 133.732 152.264 133.732 152.228 133.712L117.727 124.306C117.506 124.247 117.36 123.993 117.433 123.758C117.488 123.524 117.708 123.367 117.947 123.445L148.888 131.874L117.947 114.88C117.745 114.763 117.653 114.508 117.763 114.274C117.873 114.059 118.13 113.961 118.332 114.078L152.54 132.871C152.723 132.969 152.815 133.204 152.742 133.419C152.668 133.614 152.503 133.732 152.338 133.732Z" fill="white"/>
<path d="M117.231 142.61C117.048 142.61 116.864 142.473 116.827 142.277C116.772 142.043 116.919 141.788 117.139 141.749L149.071 133.673L117.543 132.969C117.305 132.969 117.121 132.754 117.139 132.519C117.139 132.265 117.378 132.05 117.561 132.089L152.356 132.871C152.558 132.871 152.742 133.047 152.76 133.262C152.778 133.477 152.65 133.692 152.448 133.751L117.341 142.629C117.286 142.61 117.268 142.61 117.231 142.61Z" fill="white"/>
<path d="M116.901 152.622C116.754 152.622 116.607 152.524 116.534 152.368C116.424 152.153 116.515 151.879 116.717 151.781L152.154 132.891C152.356 132.773 152.613 132.871 152.705 133.086C152.815 133.301 152.723 133.575 152.521 133.673L117.084 152.564C117.029 152.603 116.974 152.622 116.901 152.622Z" fill="white"/>
<path d="M131.802 34.5653C131.362 34.5653 127.6 33.1964 79.9956 15.8897C79.7937 15.8115 79.6653 15.5768 79.7203 15.3422C79.7754 15.1075 79.9773 14.9706 80.1975 15.0293L130.811 25.8239C131.032 25.8631 131.178 26.0977 131.142 26.3519C131.105 26.5866 130.885 26.7626 130.646 26.7039L86.2535 17.2391C99.7787 22.1475 131.38 33.6462 131.729 33.7635L131.6 34.1742L131.839 34.5457C131.839 34.5653 131.839 34.5653 131.802 34.5653Z" fill="white"/>
<path d="M132.683 44.3039C132.61 44.3039 132.536 44.2844 132.481 44.2453L120.92 37.2639C120.718 37.1466 120.645 36.8728 120.755 36.6577C120.865 36.4426 121.122 36.3644 121.324 36.4817L132.885 43.463C133.087 43.5804 133.16 43.8542 133.05 44.0693C132.977 44.2257 132.83 44.3039 132.683 44.3039Z" fill="white"/>
<path d="M133.949 55.6657C133.839 55.6657 133.748 55.6266 133.656 55.5484L124.627 46.2008C124.462 46.0248 124.462 45.7511 124.627 45.5751C124.792 45.3991 125.049 45.3991 125.214 45.5751L134.243 54.9226C134.408 55.0986 134.408 55.3724 134.243 55.5484C134.17 55.6266 134.06 55.6657 133.949 55.6657Z" fill="white"/>
</svg>
