<svg width="24" height="24" viewBox="0 0 24 24" fill="none" xmlns="http://www.w3.org/2000/svg">
<path d="M10 3.26154C11.333 3.26032 12.6364 3.65449 13.7454 4.39418C14.8543 5.13387 15.719 6.18585 16.2299 7.41703C16.7409 8.64822 16.8752 10.0033 16.6159 11.3108C16.3566 12.6184 15.7153 13.8196 14.7731 14.7626C13.831 15.7056 12.6303 16.348 11.323 16.6085C10.0157 16.869 8.66053 16.7359 7.42888 16.2261C6.19723 15.7163 5.14446 14.8526 4.40376 13.7443C3.66306 12.6361 3.2677 11.333 3.2677 10C3.27578 8.2164 3.98747 6.50807 5.2481 5.24629C6.50873 3.9845 8.21641 3.27125 10 3.26154ZM10 2C8.41775 2 6.87103 2.46919 5.55544 3.34824C4.23985 4.22729 3.21447 5.47672 2.60897 6.93853C2.00347 8.40034 1.84504 10.0089 2.15372 11.5607C2.4624 13.1126 3.22433 14.538 4.34315 15.6569C5.46197 16.7757 6.88743 17.5376 8.43928 17.8463C9.99113 18.155 11.5997 17.9965 13.0615 17.391C14.5233 16.7855 15.7727 15.7602 16.6518 14.4446C17.5308 13.129 18 11.5822 18 10C18 7.87827 17.1571 5.84344 15.6569 4.34315C14.1566 2.84285 12.1217 2 10 2Z" fill="white"/>
<path d="M23.3336 22.1937L18.4203 17.2471L17.4736 18.1871L22.387 23.1337C22.4487 23.1959 22.522 23.2453 22.6029 23.2791C22.6837 23.3129 22.7703 23.3305 22.8579 23.3308C22.9455 23.3311 23.0323 23.3141 23.1134 23.2809C23.1944 23.2477 23.2681 23.1988 23.3303 23.1371C23.3925 23.0754 23.4419 23.002 23.4757 22.9212C23.5095 22.8404 23.527 22.7537 23.5273 22.6661C23.5276 22.5785 23.5107 22.4917 23.4775 22.4107C23.4442 22.3296 23.3954 22.2559 23.3336 22.1937Z" fill="white"/>
</svg>
